/* XPM */
static char *_2x32[] = {
/* columns rows colors chars-per-pixel */
"32 32 130 2 ",
"   c #010100",
".  c #080600",
"X  c #0E0A00",
"o  c #120D00",
"O  c #161000",
"+  c #1D1600",
"@  c #161513",
"#  c #13151A",
"$  c #1B1C1B",
"%  c #231A00",
"&  c #2A1D00",
"*  c #291F17",
"=  c #2E2203",
"-  c #332600",
";  c #372800",
":  c #342818",
">  c #232831",
",  c #2B323C",
"<  c #422E00",
"1  c #423100",
"2  c #4C3601",
"3  c #533D00",
"4  c #5C4300",
"5  c #5F470F",
"6  c #5A4610",
"7  c #624400",
"8  c #664B00",
"9  c #6A4C00",
"0  c #744E00",
"q  c #6F5200",
"w  c #725400",
"e  c #7C5B00",
"r  c #6B5111",
"t  c #5D4D24",
"y  c #4A433D",
"u  c #635734",
"i  c #7E6E3E",
"p  c #3D4553",
"a  c #4B4C49",
"s  c #404857",
"d  c #424B5A",
"f  c #6E6555",
"g  c #475161",
"h  c #4A5465",
"j  c #4E596B",
"k  c #59657B",
"l  c #5C687E",
"z  c #835D00",
"x  c #836000",
"c  c #8D6400",
"v  c #8F6900",
"b  c #906100",
"n  c #946D00",
"m  c #996F00",
"M  c #9B7200",
"N  c #9B7209",
"B  c #A17602",
"V  c #AC7D00",
"C  c #B07700",
"Z  c #B07900",
"A  c #BA7E00",
"S  c #9A7A25",
"D  c #987B2F",
"F  c #8B7E53",
"G  c #827E69",
"H  c #AF8002",
"J  c #B38302",
"K  c #BB8302",
"L  c #BD8B03",
"P  c #B49135",
"I  c #C18C00",
"U  c #CA8C00",
"Y  c #C69100",
"T  c #CC9601",
"R  c #CC9709",
"E  c #D29200",
"W  c #D59D00",
"Q  c #DA9800",
"!  c #C89711",
"~  c #E19E00",
"^  c #DDA201",
"/  c #E6A300",
"(  c #E8A700",
")  c #E7A900",
"_  c #EDAD00",
"`  c #F1AE00",
"'  c #EFB004",
"]  c #F5B300",
"[  c #F9B500",
"{  c #FEBB00",
"}  c #87826A",
"|  c #878572",
" . c #627087",
".. c #697485",
"X. c #647189",
"o. c #697790",
"O. c #6A7892",
"+. c #727F96",
"@. c #707F99",
"#. c #73839E",
"$. c #7685A1",
"%. c #7A8AA6",
"&. c #7C8DAB",
"*. c #7F90AE",
"=. c #8091AF",
"-. c #8395B4",
";. c #8698B8",
":. c #899ABB",
">. c #8C9FC0",
",. c #8FA2C3",
"<. c #91A5C7",
"1. c #92A6C8",
"2. c #96AACE",
"3. c #97ABD0",
"4. c #99ADD2",
"5. c #9CB1D6",
"6. c #9FB4DA",
"7. c #A0B3D7",
"8. c #A1B6DB",
"9. c #A2B8DE",
"0. c #A6BBE3",
"q. c #A8BFE8",
"w. c #ACC3EC",
"e. c #AFC6F1",
"r. c #AFC8F4",
"t. c #B0C6F0",
"y. c #B3CBF6",
"u. c #B6CEFA",
"i. c #B9D1FD",
"p. c None",
/* pixels */
"p.p.p.p.p.p.p.p.p.p.p.p.p.p.p.p.p.p.p.p.p.p.p.p.p.p.p.p.p.p.p.p.",
"p.p.p.p.p.p.p.p.p.p.p.p.p.p.p.p.p.p.p.p.p.p.p.p.p.p.p.p.p.p.p.p.",
"p.p.p.p.p.p.p.p.p.p.p.p.p.p.p.p.p.p.p.p.p.p.p.p.p.p.p.p.p.p.p.p.",
"p.p.p.p.p.p.p.p.p.p.p.p.p.p.p.p.p.p.p.p.p.p.p d p.p.p.p.p.p.p.p.",
"p.p.p.p.p.p.p.p.p.p.p.p.p.p.p.p.p.p.p.p X.:.5.8.>.j p.p.p.p.p.p.",
"p.p.p.p.p.p.p.p.p.p.p.p.p.p.p.p.p.p.X.<.t.i.i.i.i.*.p.p.p.p.p.p.",
"p.p.p.p.p.p.p.p.p.p.p.p.p.p.p.p.d &.w.i.i.i.i.i.i.:.p.p.p.p.p.p.",
"p.p.p.p.p.p.p.p.p.p.p.p.p.p.p.h ,.u.i.i.i.y.w.9.6.X.p.p.p.p.p.p.",
"p.p.p.p.p.p.p.p.p.p.p.p.p.p.j 2.i.i.y.8.:.&.#.$.$.O.l g p.p.p.p.",
"p.p.p.p.p.p.p.p.p.p.p.p.p.d <.i.y.4.%.#.-.3.q.t.y.y.t.5.X.p.p.p.",
"p.p.p.p.p.p.p.p.p.p.p.p.p.=.u.8.&.$.1.w.i.i.i.i.i.i.i.i.3.s p.p.",
"p.p.p.p.p.p.p.p.p.p.p.p. .w.<.#.,.w.i.i.i.i.i.i.i.i.i.i.2.s p.p.",
"p.p.p.p.p.p.p.p.p.p.p.p.,.>.#.8.i.i.i.i.i.u.i.u.i.i.i.y.#.p.p.p.",
"p.p.p.p.3 n B 4 1 p.p.k :.#.0.i.i.u.i.i.i.i.i.i.i.i.y.-.p.p.p.p.",
"p.p.p.v ^ [ { L M n = j O.5.i.i.i.i.u.i.i.i.i.i.i.e.=.p p.p.p.p.",
"p.p.6 ! { ] ] _ ^ _ e $  .y.i.i.i.u.i.i.i.i.i.u.7..., p.p.p.p.p.",
"p.p.t D ^ S P ' { { Y = k y.i.i.u.u.i.i.u.y.6.@.i N q p.p.p.p.p.",
"p.8 6 r H y f R { { _ 4 > %.w.r.y.y.w.6.-.l , @ n [ W w p.p.p.p.",
"p.x H L L * : T { { ] q   # a G | } F u @ .     z { { V + p.p.p.",
"p.e ' { ' N B ' ' { ] 8     2 T ^ ^ ) c .       q ] { Y % p.p.p.",
"p.4 ^ { { { ] T H ] ^ 1     8 ] { { { e .       w ] { Y +   p.p.",
"p.p.w J Y I M e Y { M O   . z { { { _ 4         z [ { V o   p.p.",
"p.p.% 3 e e v Y ] Y ;     o J { { { W -       X M ` ( e .   p.p.",
"p.p.p.= w V T T n ;       < ^ [ [ ] n o       + V ~ I <   p.p.p.",
"p.p.p.p.p.p.7 1 X       o c ( ( / E 2         < K U z o p.p.p.p.",
"p.p.p.p.p.p.p.p.p.    X 8 U Q E E z X       X 0 C b < p.p.p.p.p.",
"p.p.p.p.p.p.p.p.p.p.  = c Z A A b &         & 9 7 p.p.p.p.p.p.p.",
"p.p.p.p.p.p.p.p.p.p.p.p.p.2 7 7 &           O p.p.p.p.p.p.p.p.p.",
"p.p.p.p.p.p.p.p.p.p.p.p.p.p.p.p.p.p.p.p.p.p.p.p.p.p.p.p.p.p.p.p.",
"p.p.p.p.p.p.p.p.p.p.p.p.p.p.p.p.p.p.p.p.p.p.p.p.p.p.p.p.p.p.p.p.",
"p.p.p.p.p.p.p.p.p.p.p.p.p.p.p.p.p.p.p.p.p.p.p.p.p.p.p.p.p.p.p.p.",
"p.p.p.p.p.p.p.p.p.p.p.p.p.p.p.p.p.p.p.p.p.p.p.p.p.p.p.p.p.p.p.p."
};
