/* XPM */
static char *_8x48[] = {
/* columns rows colors chars-per-pixel */
"48 48 162 2 ",
"   c #000100",
".  c #090700",
"X  c #0C0900",
"o  c #0C0E0F",
"O  c #130D00",
"+  c #161101",
"@  c #1B1400",
"#  c #0D0A14",
"$  c #03031A",
"%  c #101215",
"&  c #191314",
"*  c #171A1F",
"=  c #201700",
"-  c #241B00",
";  c #2A1E00",
":  c #211913",
">  c #2C2100",
",  c #332400",
"<  c #372800",
"1  c #3C2C01",
"2  c #1A1E22",
"3  c #1F242B",
"4  c #22212C",
"5  c #242A32",
"6  c #292F38",
"7  c #2E353F",
"8  c #3F3C31",
"9  c #422E00",
"0  c #453200",
"q  c #493500",
"w  c #4E3900",
"e  c #4B370F",
"r  c #533D00",
"t  c #5B3F00",
"y  c #533D0E",
"u  c #5C4300",
"i  c #5E450D",
"p  c #644601",
"a  c #654A00",
"s  c #6A4D00",
"d  c #684D0D",
"f  c #714D00",
"g  c #745300",
"h  c #7D5501",
"j  c #775802",
"k  c #7A5A00",
"l  c #74570C",
"z  c #7B5A0A",
"x  c #624B11",
"c  c #6E551A",
"v  c #775D16",
"b  c #2F3640",
"n  c #323743",
"m  c #333A44",
"M  c #353D4A",
"N  c #38404C",
"B  c #3E4654",
"V  c #434C5C",
"C  c #646153",
"Z  c #60615D",
"A  c #454F60",
"S  c #465060",
"D  c #485263",
"F  c #4C5768",
"G  c #5D5C62",
"H  c #525E71",
"J  c #566276",
"K  c #5A667B",
"L  c #61626D",
"P  c #777164",
"I  c #6B6F73",
"U  c #666F7C",
"Y  c #835E00",
"T  c #866200",
"R  c #8C6400",
"E  c #8F6900",
"W  c #83600A",
"Q  c #956501",
"!  c #936B00",
"~  c #986F00",
"^  c #936D09",
"/  c #9C7200",
"(  c #96700A",
")  c #9D7509",
"_  c #836416",
"`  c #8A6A19",
"'  c #91721F",
"]  c #A36E00",
"[  c #A37302",
"{  c #A67900",
"}  c #AA7B02",
"|  c #B57D00",
" . c #AF8100",
".. c #B38301",
"X. c #BD8100",
"o. c #BB8902",
"O. c #A8821D",
"+. c #A28025",
"@. c #BC9630",
"#. c #C38600",
"$. c #C28B00",
"%. c #CC8C00",
"&. c #D08F00",
"*. c #C69101",
"=. c #CB9500",
"-. c #CF9800",
";. c #D49300",
":. c #D99700",
">. c #D59C01",
",. c #DC9A00",
"<. c #E09F00",
"1. c #DEA300",
"2. c #E4A500",
"3. c #E9A600",
"4. c #E6A901",
"5. c #ECAC00",
"6. c #E5AB0E",
"7. c #F1AE00",
"8. c #EFB001",
"9. c #F3B200",
"0. c #F9B600",
"q. c #FEBA00",
"w. c #5F6B82",
"e. c #626F86",
"r. c #637087",
"t. c #64728A",
"y. c #727D8B",
"u. c #697790",
"i. c #6C7A94",
"p. c #6F7E98",
"a. c #707F99",
"s. c #768295",
"d. c #74839C",
"f. c #79879C",
"g. c #7686A2",
"h. c #7989A6",
"j. c #7D8DAB",
"k. c #7F90AE",
"l. c #A3A19C",
"z. c #8090AF",
"x. c #8394B3",
"c. c #8698B8",
"v. c #8A9CBC",
"b. c #8DA0C1",
"n. c #91A4C6",
"m. c #92A6C9",
"M. c #95A9CC",
"N. c #97ABD0",
"B. c #98ACD1",
"V. c #9DB1D7",
"C. c #9EB3D8",
"Z. c #A1B6DD",
"A. c #A5BBE3",
"S. c #A9BEE6",
"D. c #ACC3ED",
"F. c #AFC6F0",
"G. c #B0C7F1",
"H. c #B3CBF6",
"J. c #B6CEFA",
"K. c #B7D0FD",
"L. c #B8D0FD",
"P. c None",
/* pixels */
"P.P.P.P.P.P.P.P.P.P.P.P.P.P.P.P.P.P.P.P.P.P.P.P.P.P.P.P.P.P.P.P.P.P.P.P.P.P.P.P.P.P.P.P.P.P.P.P.",
"P.P.P.P.P.P.P.P.P.P.P.P.P.P.P.P.P.P.P.P.P.P.P.P.P.P.P.P.P.P.P.P.P.P.P.P.P.P.P.P.P.P.P.P.P.P.P.P.",
"P.P.P.P.P.P.P.P.P.P.P.P.P.P.P.P.P.P.P.P.P.P.P.P.P.P.P.P.P.P.P.P.P.P.P.P.P.P.P.P.P.P.P.P.P.P.P.P.",
"P.P.P.P.P.P.P.P.P.P.P.P.P.P.P.P.P.P.P.P.P.P.P.P.P.P.P.P.P.P.P.P.P.P.P.P.P.P.P.P.P.P.P.P.P.P.P.P.",
"P.P.P.P.P.P.P.P.P.P.P.P.P.P.P.P.P.P.P.P.P.P.P.P.P.P.P.P.P.P.P.P.P.P.P.P.P.P.P.P.P.P.P.P.P.P.P.P.",
"P.P.P.P.P.P.P.P.P.P.P.P.P.P.P.P.P.P.P.P.P.P.P.P.P.P.P.P.P.P.P.P.* 6 M M 5 P.P.P.P.P.P.P.P.P.P.P.",
"P.P.P.P.P.P.P.P.P.P.P.P.P.P.P.P.P.P.P.P.P.P.P.P.P.P.P.P.P.P.n J j.N.C.A.n.K 2 P.P.P.P.P.P.P.P.P.",
"P.P.P.P.P.P.P.P.P.P.P.P.P.P.P.P.P.P.P.P.P.P.P.P.P.P.P.P.M t.N.G.L.L.L.L.L.S.F P.P.P.P.P.P.P.P.P.",
"P.P.P.P.P.P.P.P.P.P.P.P.P.P.P.P.P.P.P.P.P.P.P.P.P.P.3 K m.J.L.L.L.L.L.L.J.L.d.P.P.P.P.P.P.P.P.P.",
"P.P.P.P.P.P.P.P.P.P.P.P.P.P.P.P.P.P.P.P.P.P.P.P.P.M j.F.L.L.L.L.L.L.L.L.L.L.h.P.P.P.P.P.P.P.P.P.",
"P.P.P.P.P.P.P.P.P.P.P.P.P.P.P.P.P.P.P.P.P.P.P.P.D n.J.L.L.L.L.L.L.L.L.J.L.L.u.P.P.P.P.P.P.P.P.P.",
"P.P.P.P.P.P.P.P.P.P.P.P.P.P.P.P.P.P.P.P.P.P.P.H Z.L.L.L.L.L.L.L.L.G.D.A.C.m.V P.P.P.P.P.P.P.P.P.",
"P.P.P.P.P.P.P.P.P.P.P.P.P.P.P.P.P.P.P.P.P.P.J A.L.L.L.L.L.L.A.n.h.t.K J J H B m 5 P.P.P.P.P.P.P.",
"P.P.P.P.P.P.P.P.P.P.P.P.P.P.P.P.P.P.P.P.P.H A.L.L.L.L.G.m.a.K K i.z.n.C.A.D.S.Z.v.t.7 P.P.P.P.P.",
"P.P.P.P.P.P.P.P.P.P.P.P.P.P.P.P.P.P.P.P.V V.L.L.L.G.v.K J a.n.S.L.L.L.L.L.L.L.L.L.J.x.b P.P.P.P.",
"P.P.P.P.P.P.P.P.P.P.P.P.P.P.P.P.P.P.P.n n.L.L.H.n.e.J z.A.L.L.L.L.L.L.J.L.L.L.L.L.L.G.e.P.P.P.P.",
"P.P.P.P.P.P.P.P.P.  P.P.P.P.P.P.P.P.2 p.J.L.S.a.J h.S.L.L.L.J.L.L.J.L.L.L.L.L.J.L.L.J.i.P.P.P.P.",
"P.P.      P.P.P.P.P.P.P.P.P.P.P.P.P.A A.L.B.K r.V.L.L.L.L.L.L.L.L.L.L.L.L.J.L.L.L.L.G.K P.P.P.P.",
"P.P.P.P.P.P.P.P.P.P.  P.P.P.P.P.P.2 j.L.m.H g.F.L.L.L.J.L.L.L.L.L.L.L.L.L.L.J.L.L.L.n.n P.P.P.P.",
"P.P.P.P.P.P.  X > 1 - X P.P.P.P.P.B A.N.H z.H.L.L.L.L.L.L.L.J.L.J.L.L.L.L.L.L.L.L.S.H P.P.P.P.P.",
"P.P.P.P.P.P.0 T ..=...w q < P.P.P.r.C.w.h.H.L.L.L.L.L.J.L.L.L.L.L.L.L.L.L.L.L.L.D.r.* P.P.P.P.P.",
"P.P.P.P.- j >.0.q.q.q.! R  .r P.P.d.a.t.F.K.L.K.L.L.L.L.J.L.L.L.L.L.L.J.L.L.L.A.e.2 P.P.P.P.P.P.",
"P.P.P.P.k 5.q.q.q.q.q.=.! 8.=.w o B D M.L.L.L.L.J.L.L.L.L.L.J.L.L.J.L.L.L.J.B.H 2 P.P.P.P.P.P.P.",
"P.P.P.0 ' 6.q.q.9.9.q.0.4.0.q. .= . A F.L.K.K.L.L.L.L.L.J.L.L.L.L.L.L.L.D.h.m P.P.P.P.P.P.P.P.P.",
"P.P.- x P @.0.>.` +.6.q.q.q.q.8.s   D G.L.L.K.L.L.L.L.L.L.L.L.L.L.L.D.c.Z v k 1 P.P.P.P.P.P.P.P.",
"P.P.w l 4 _ 8.z G l.O.0.q.q.q.q.{ O 5 m.L.L.L.J.L.J.K.L.L.L.L.H.Z.h.A 2 j 5.9.o.u P.P.P.P.P.P.P.",
"P.P.k ^ # W 4.e M L c 8.q.q.q.q.-.>   N c.D.J.K.J.L.J.H.D.C.x.K b %     g 0.q.q.=.q P.P.P.P.P.P.",
"P.P.^ *.i o.5.y $ $ d 8.q.q.q.q.1.1     * B U s.f.s.y.I C 8 %           t 5.q.q.0.T X P.P.P.P.P.",
"P.P.E 8.4.0.0.( & : } q.q.q.q.q.1.1       + k ) ( ( ) ..*.s             0 4.q.q.q.o.+   P.P.P.P.",
"P.P.Y 9.q.q.q.5.} ..8.q.8.5.q.q.>.>       - *.q.0.q.q.q.0.g             1 1.q.q.q.*.@   P.P.P.P.",
"P.P.u 4.q.q.q.q.q.q.q.1.~ -.q.q. .+       > -.q.q.q.q.q.8.u             1 1.q.q.q.*.@   P.P.P.P.",
"P.P.>  .8.q.q.q.q.8.*.j k 5.q.9.g .       1 2.q.q.q.q.q.1.1             0 4.q.q.q...+     P.P.P.",
"P.P.P.1 k { ..o.{ T u p =.q.q.*.>         p 7.q.q.q.q.q.$.=             u 5.q.q.0.! X       P.P.",
"P.P.P.X < a s s s s T =.0.q.1.r         . E q.q.q.q.q.q.! X           . f 7.7.7.2.p       P.P.P.",
"P.P.P.P.+ q T / { $.4.q.0.=.u .         = *.q.q.q.q.q.5.u .           X Q 2.3.3.#.,     P.P.P.P.",
"P.P.P.P.P.+ r / =.1.1.*.R < .           u 5.0.9.7.7.7.o.-             @ | ,.:.:.Y X   P.P.P.P.P.",
"P.P.P.P.P.P.P.- 1 w w > .             = } 7.5.3.3.3.<.f .             q #.&.&.| 9   P.P.P.P.P.P.",
"P.P.P.P.P.P.P.P.P.P.P.P.            X s :.<.<.,.,.,.} ;             X g #.#.X.g O P.P.P.P.P.P.P.",
"P.P.P.P.P.P.P.P.P.P.P.P.P.P.      X t #.:.;.&.&.&.#.t .             , ] | ] f ; P.P.P.P.P.P.P.P.",
"P.P.P.P.P.P.P.P.P.P.P.P.P.P.P.  . 9 ] %.%.%.%.%.| h O             X p Q f 9 = P.P.P.P.P.P.P.P.P.",
"P.P.P.P.P.P.P.P.P.P.P.P.P.P.P.P.P.= q p Y Q ] [ f @               + 9 , P.P.P.P.P.P.P.P.P.P.P.P.",
"P.P.P.P.P.P.P.P.P.P.P.P.P.P.P.P.P.P.P.P.P.; < < +                 P.P.P.P.P.P.P.P.P.P.P.P.P.P.P.",
"P.P.P.P.P.P.P.P.P.P.P.P.P.P.P.P.P.P.P.P.P.P.P.P.P.P.P.P.P.P.P.P.P.P.P.P.P.P.P.P.P.P.P.P.P.P.P.P.",
"P.P.P.P.P.P.P.P.P.P.P.P.P.P.P.P.P.P.P.P.P.P.P.P.P.P.P.P.P.P.P.P.P.P.P.P.P.P.P.P.P.P.P.P.P.P.P.P.",
"P.P.P.P.P.P.P.P.P.P.P.P.P.P.P.P.P.P.P.P.P.P.P.P.P.P.P.P.P.P.P.P.P.P.P.P.P.P.P.P.P.P.P.P.P.P.P.P.",
"P.P.P.P.P.P.P.P.P.P.P.P.P.P.P.P.P.P.P.P.P.P.P.P.P.P.P.P.P.P.P.P.P.P.P.P.P.P.P.P.P.P.P.P.P.P.P.P.",
"P.P.P.P.P.P.P.P.P.P.P.P.P.P.P.P.P.P.P.P.P.P.P.P.P.P.P.P.P.P.P.P.P.P.P.P.P.P.P.P.P.P.P.P.P.P.P.P.",
"P.P.P.P.P.P.P.P.P.P.P.P.P.P.P.P.P.P.P.P.P.P.P.P.P.P.P.P.P.P.P.P.P.P.P.P.P.P.P.P.P.P.P.P.P.P.P.P."
};
