/* XPM */
static char *_4x64[] = {
/* columns rows colors chars-per-pixel */
"64 64 163 2 ",
"   c #010100",
".  c #090700",
"X  c #0D0A00",
"o  c #070909",
"O  c #090B0D",
"+  c #110D00",
"@  c #161000",
"#  c #1C1400",
"$  c #030216",
"%  c #090717",
"&  c #0C0C12",
"*  c #000118",
"=  c #0F1215",
"-  c #171115",
";  c #1A1414",
":  c #12161A",
">  c #15191D",
",  c #211800",
"<  c #2A1D01",
"1  c #211912",
"2  c #2D2100",
"3  c #322400",
"4  c #382600",
"5  c #372800",
"6  c #3C2C00",
"7  c #2E2211",
"8  c #302411",
"9  c #171A20",
"0  c #1B1D24",
"q  c #1C2026",
"w  c #1E232A",
"e  c #22262C",
"r  c #393424",
"t  c #242931",
"y  c #2C2D34",
"u  c #2C2F3B",
"i  c #2C323C",
"p  c #412E00",
"a  c #453200",
"s  c #4A3501",
"d  c #4F3A00",
"f  c #4A360E",
"g  c #543C00",
"h  c #433716",
"j  c #433817",
"k  c #483A12",
"l  c #5D4100",
"z  c #53410B",
"x  c #624600",
"c  c #654A01",
"v  c #6A4C00",
"b  c #6E5100",
"n  c #755500",
"m  c #7A5600",
"M  c #7C5A00",
"N  c #7F5E0A",
"B  c #725815",
"V  c #2F3641",
"C  c #303742",
"Z  c #323945",
"A  c #353C49",
"S  c #38404D",
"D  c #3D4553",
"F  c #42474E",
"G  c #5D574C",
"H  c #404857",
"J  c #4B4B55",
"K  c #434D5D",
"L  c #4C4D58",
"P  c #6B6150",
"I  c #475161",
"U  c #4A5466",
"Y  c #4D5769",
"T  c #4F596C",
"R  c #505A6D",
"E  c #535E72",
"W  c #5F6069",
"Q  c #566276",
"!  c #59657A",
"~  c #5C687E",
"^  c #825D00",
"/  c #885E00",
"(  c #805E09",
")  c #866200",
"_  c #8B6300",
"`  c #8F6900",
"'  c #8A6508",
"]  c #8E6B0D",
"[  c #916200",
"{  c #946C02",
"}  c #9D6A00",
"|  c #916A09",
" . c #9D7201",
".. c #9E750D",
"X. c #A27600",
"o. c #AB7400",
"O. c #A67901",
"+. c #AB7D02",
"@. c #B47A00",
"#. c #BB7E00",
"$. c #896E28",
"%. c #987A29",
"&. c #B38201",
"*. c #BB8300",
"=. c #BB8900",
"-. c #C38500",
";. c #C38C00",
":. c #CC8C00",
">. c #C59001",
",. c #CC9500",
"<. c #D49300",
"1. c #D89700",
"2. c #D49C01",
"3. c #DC9C00",
"4. c #CC9A13",
"5. c #E09F00",
"6. c #DDA201",
"7. c #E3A400",
"8. c #E9A600",
"9. c #E6A800",
"0. c #ECAB00",
"q. c #F2AF00",
"w. c #F4B200",
"e. c #F9B600",
"r. c #FFBB00",
"t. c #5E6B81",
"y. c #626E85",
"u. c #65728B",
"i. c #68768F",
"p. c #697790",
"a. c #6C7B95",
"s. c #6F7E99",
"d. c #7686A2",
"f. c #7988A5",
"g. c #7B8DAC",
"h. c #84858C",
"j. c #999A9C",
"k. c #8293B2",
"l. c #8799BA",
"z. c #8A9CBC",
"x. c #AEABA2",
"c. c #8A9EC0",
"v. c #8EA2C5",
"b. c #91A4C7",
"n. c #93A6CA",
"m. c #95A9CC",
"M. c #98ABCE",
"N. c #98ADD1",
"B. c #9CB1D6",
"V. c #9FB4D9",
"C. c #A1B6DC",
"Z. c #A3B8DF",
"A. c #A5BBE2",
"S. c #A8BEE6",
"D. c #A9BFE8",
"F. c #ACC2EB",
"G. c #AFC6F0",
"H. c #B3CAF5",
"J. c #B6CEF9",
"K. c #B8CFFB",
"L. c #B8D0FC",
"P. c #EAEBEC",
"I. c None",
/* pixels */
"I.I.I.I.I.I.I.I.I.I.I.I.I.I.I.I.I.I.I.I.I.I.I.I.I.I.I.I.I.I.I.I.I.I.I.I.I.I.I.I.I.I.I.I.I.I.I.I.I.I.I.I.I.I.I.I.I.I.I.I.I.I.I.I.",
"I.I.I.I.I.I.I.I.I.I.I.I.I.I.I.I.I.I.I.I.I.I.I.I.I.I.I.I.I.I.I.I.I.I.I.I.I.I.I.I.I.I.I.I.I.I.I.I.I.I.I.I.I.I.I.I.I.I.I.I.I.I.I.I.",
"I.I.I.I.I.I.I.I.I.I.I.I.I.I.I.I.I.I.I.I.I.I.I.I.I.I.I.I.I.I.I.I.I.I.I.I.I.I.I.I.I.I.I.I.I.I.I.I.I.I.I.I.I.I.I.I.I.I.I.I.I.I.I.I.",
"I.I.I.I.I.I.I.I.I.I.I.I.I.I.I.I.I.I.I.I.I.I.I.I.I.I.I.I.I.I.I.I.I.I.I.I.I.I.I.I.I.I.I.I.I.I.I.I.I.I.I.I.I.I.I.I.I.I.I.I.I.I.I.I.",
"I.I.I.I.I.I.I.I.I.I.I.I.I.I.I.I.I.I.I.I.I.I.I.I.I.I.I.I.I.I.I.I.I.I.I.I.I.I.I.I.I.I.I.I.I.I.I.I.I.I.I.I.I.I.I.I.I.I.I.I.I.I.I.I.",
"I.I.I.I.I.I.I.I.I.I.I.I.I.I.I.I.I.I.I.I.I.I.I.I.I.I.I.I.I.I.I.I.I.I.I.I.I.I.I.I.I.I.I.I.I.I.I.I.I.I.I.I.I.I.I.I.I.I.I.I.I.I.I.I.",
"I.I.I.I.I.I.I.I.I.I.I.I.I.I.I.I.I.I.I.I.I.I.I.I.I.I.I.I.I.I.I.I.I.I.I.I.I.I.I.I.I.I.I.I.I.I.I.I.I.I.I.I.I.I.I.I.I.I.I.I.I.I.I.I.",
"I.I.I.I.I.I.I.I.I.I.I.I.I.I.I.I.I.I.I.I.I.I.I.I.I.I.I.I.I.I.I.I.I.I.I.I.I.I.I.I.I.I.I.O 9 u V i q O I.I.I.I.I.I.I.I.I.I.I.I.I.I.",
"I.I.I.I.I.I.I.I.I.I.I.I.I.I.I.I.I.I.I.I.I.I.I.I.I.I.I.I.I.I.I.I.I.I.I.I.I.I.I.I.O t Y d.m.A.F.S.M.i.w I.I.I.I.I.I.I.I.I.I.I.I.I.",
"I.I.I.I.I.I.I.I.I.I.I.I.I.I.I.I.I.I.I.I.I.I.I.I.I.I.I.I.I.I.I.I.I.I.I.I.I.I.& Z p.V.H.L.L.L.L.L.L.L.g.> I.I.I.I.I.I.I.I.I.I.I.I.",
"I.I.I.I.I.I.I.I.I.I.I.I.I.I.I.I.I.I.I.I.I.I.I.I.I.I.I.I.I.I.I.I.I.I.I.I.. i s.A.L.L.L.L.L.L.J.L.L.L.H.I I.I.I.I.I.I.I.I.I.I.I.I.",
"I.I.I.I.I.I.I.I.I.I.I.I.I.I.I.I.I.I.I.I.I.I.I.I.I.I.I.I.I.I.I.I.I.I.I.> Q V.L.L.L.L.L.L.L.L.L.L.L.L.L.i.. I.I.I.I.I.I.I.I.I.I.I.",
"I.I.I.I.I.I.I.I.I.I.I.I.I.I.I.I.I.I.I.I.I.I.I.I.I.I.I.I.I.I.I.I.I.  i k.H.L.L.L.L.L.L.L.L.L.L.L.L.L.L.a.o I.I.I.I.I.I.I.I.I.I.I.",
"I.I.I.I.I.I.I.I.I.I.I.I.I.I.I.I.I.I.I.I.I.I.I.I.I.I.I.I.I.I.I.I.O I B.L.L.L.L.L.L.L.L.L.L.L.L.L.L.L.L.t.  I.I.I.I.I.I.I.I.I.I.I.",
"I.I.I.I.I.I.I.I.I.I.I.I.I.I.I.I.I.I.I.I.I.I.I.I.I.I.I.I.I.I.I.= ~ F.L.L.L.L.L.L.L.L.L.L.L.L.L.L.L.L.H.K I.I.I.I.I.I.I.I.I.I.I.I.",
"I.I.I.I.I.I.I.I.I.I.I.I.I.I.I.I.I.I.I.I.I.I.I.I.I.I.I.I.I.I.> p.H.L.L.L.L.L.L.L.L.L.L.L.L.L.G.F.A.V.z.q I.I.I.I.I.I.I.I.I.I.I.I.",
"I.I.I.I.I.I.I.I.I.I.I.I.I.I.I.I.I.I.I.I.I.I.I.I.I.I.I.I.I.> s.H.L.L.L.L.L.L.L.L.L.H.A.z.a.Q K S A A i > = o I.I.I.I.I.I.I.I.I.I.",
"I.I.I.I.I.I.I.I.I.I.I.I.I.I.I.I.I.I.I.I.I.I.I.I.I.I.I.I.: a.J.L.L.L.L.L.L.L.J.V.f.T A A I t.d.l.b.M.M.m.l.s.U q . I.I.I.I.I.I.I.",
"I.I.I.I.I.I.I.I.I.I.I.I.I.I.I.I.I.I.I.I.I.I.I.I.I.I.I.& y.H.L.L.L.L.L.L.G.l.E Z D y.z.A.H.L.L.L.L.L.L.L.L.L.H.m.Y & I.I.I.I.I.I.",
"I.I.I.I.I.I.I.I.I.I.I.I.I.I.I.I.I.I.I.I.I.I.I.I.I.I.. T G.L.L.L.L.L.G.f.K Z ! z.F.L.L.L.L.L.L.L.L.L.L.L.L.L.L.L.G.T o I.I.I.I.I.",
"I.I.I.I.I.I.I.I.I.I.I.I.I.I.I.I.I.I.I.I.I.I.I.I.I.I.A Z.L.L.L.L.H.k.D S i.B.J.L.L.L.L.L.L.L.L.J.L.L.L.L.L.L.L.L.L.m.q I.I.I.I.I.",
"I.I.I.I.I.I.I.I.          I.I.I.I.I.I.I.I.I.I.I.I.0 l.L.L.L.L.B.Y Z u.Z.L.L.L.L.L.L.L.L.L.J.L.L.L.L.L.L.L.L.L.J.L.F.C I.I.I.I.I.",
"I.I.I.I.I.I.I.I.I.I.I.I.    I.I.I.I.I.I.I.I.I.I.. t.J.L.L.H.d.Z R B.L.L.L.L.L.L.L.L.L.L.L.L.L.L.L.L.L.L.L.L.L.L.L.S.u I.I.I.I.I.",
"I.I.I.          I.I.I.I.I.  I.I.I.I.I.I.I.I.I.I.u V.L.L.F.! Z f.H.L.L.L.L.L.J.L.L.J.L.L.L.K.L.L.L.L.L.L.L.L.L.L.L.z.> I.I.I.I.I.",
"I.I.I.I.I.I.I.  I.I.I.I.I.I.  I.I.I.I.I.I.I.I.O i.L.L.A.I D m.L.L.L.L.L.L.L.L.L.L.L.L.L.L.L.J.L.J.L.L.L.L.L.L.L.H.R   I.I.I.I.I.",
"I.I.I.I.I.I.I.I.  I.I.I.I.I.  I.I.I.I.I.I.I.I.t V.L.Z.K I Z.L.L.L.L.H.L.L.L.L.L.L.L.J.L.K.L.L.L.L.L.L.L.L.L.L.L.l.9 I.I.I.I.I.I.",
"I.I.I.I.I.I.I.I.    , 6 d d 2 . . I.I.I.I.I.I.R J.F.U I A.L.L.L.L.L.L.L.L.H.L.L.J.L.K.L.L.J.L.L.L.L.L.L.L.L.L.B.i I.I.I.I.I.I.I.",
"I.I.I.I.I.I.I.o 3 M >.9.q.w.>.3 l 6 . I.I.I.O d.L.u.S C.L.L.L.L.L.L.L.L.L.L.L.L.L.L.L.L.L.L.L.L.L.L.L.L.L.L.C.D   I.I.I.I.I.I.I.",
"I.I.I.I.I.I.+ c 2.r.r.r.r.r.w.c ) 6.n @ I.I.> b.b.i z.L.L.L.L.J.L.L.L.L.L.L.L.L.L.L.J.L.K.L.L.L.L.L.L.L.L.B.D O I.I.I.I.I.I.I.I.",
"I.I.I.I.I.+ M 0.r.r.r.r.r.r.r.+.d 9.w.` # I.q z.Y Q J.L.L.L.L.L.J.L.L.J.L.L.L.L.L.L.L.L.L.L.L.L.J.L.L.J.v.Z   I.I.I.I.I.I.I.I.I.",
"I.I.I.I.. x 9.r.r.r.r.r.r.r.r.9.` 9.r.w.( . O e q v.L.L.L.L.L.L.L.L.L.L.L.J.L.L.L.L.L.K.L.L.L.L.L.L.G.s.e I.I.I.I.I.I.I.I.I.I.I.",
"I.I.I.I.3 B %.q.r.r.r.r.r.r.r.r.e.r.r.r.9.s     u S.L.L.L.L.L.L.L.L.L.L.L.L.L.L.J.L.L.L.L.K.L.L.K.n.K O I.I.I.I.I.I.I.I.I.I.I.I.",
"I.I.I.X v P x.4.r.r.2.( ] 7.r.r.r.r.r.r.r.+.X   i F.L.L.L.L.L.L.L.J.L.L.L.L.L.L.L.L.L.L.L.L.K.B.t.r v d + I.I.I.I.I.I.I.I.I.I.I.",
"I.I.I.5 { y J ..r.9.f L j.$.q.r.r.r.r.r.r.0.6   9 M.L.L.L.L.L.L.L.L.L.L.L.L.L.L.L.L.L.L.H.N.t.e s ;.e.0.{ 2 I.I.I.I.I.I.I.I.I.I.",
"I.I.I.c +.% % | r.&.% h.P.G >.r.e.r.r.r.r.r.M     U F.L.L.L.L.L.L.L.L.L.L.L.L.L.L.L.S.k.Y w     b r.r.r.r.>.a I.I.I.I.I.I.I.I.I.",
"I.I.. ` >.- % ..r.' * V W q +.r.r.r.r.r.r.r.O.X   o K b.G.L.L.L.L.L.L.L.L.L.G.V.k.Q u &         s q.r.r.r.r.;., I.I.I.I.I.I.I.I.",
"I.I.X O.0.k 8 2.r.] % * * = &.r.r.r.r.e.r.r.=.+       > D u.g.c.v.v.z.g.a.Q D e O               2 6.r.r.r.r.e.c   I.I.I.I.I.I.I.",
"I.I.X &.r.2.>.r.r.>.; * * 7 6.r.r.r.r.r.r.r.>.+           3 z k j j j z c ) X.a                 # ,.r.r.r.r.r. ..   I.I.I.I.I.I.",
"I.I.X X.r.r.r.r.r.e.( ; 1  .e.r.r.r.r.r.r.r.=.X           M w.0.9.9.0.q.w.r.w.l                 + ;.r.r.r.r.r.=.+   I.I.I.I.I.I.",
"I.I.. ) r.r.r.r.r.r.w.>.,.e.r.r.e.2.e.r.r.r.X..           _ r.r.r.r.r.r.r.r.q.a                 + =.r.r.r.r.r.>.@     I.I.I.I.I.",
"I.I.I.x w.r.r.r.r.r.r.r.r.r.r.r.X.` r.r.r.r.n           .  .r.r.r.r.r.r.r.r.7.3                 + =.r.r.r.r.r.>.@     I.I.I.I.I.",
"I.I.I.3 2.r.r.r.r.r.r.r.r.r.q.{ p =.r.r.r.9.4           X +.r.r.r.r.r.r.r.r.,.#                 @ >.r.r.r.r.r.*.+     I.I.I.I.I.",
"I.I.I.. b 2.w.r.r.r.r.e.9.=.b 5 n w.r.r.r.O.+           # ,.r.r.r.r.r.r.r.r.+..                 # 2.r.r.r.r.r. ..         I.I.I.",
"I.I.I.I.X d n ` X.O. ._ b z s c 3.r.r.r.9.p             6 0.r.r.r.r.r.r.r.r.M                   2 7.r.r.e.e.e.n             I.I.",
"I.I.I.I.  , z x x x x c x x M 2.r.r.r.w.n               v e.r.e.r.e.r.r.r.q.s                   s 0.w.w.q.q.7.a         I.I.I.I.",
"I.I.I.I.I.. 5 b M n n M ) &.0.r.r.r.w.) +             . O.r.r.e.r.r.r.r.r.,.#                   v 0.0.8.8.8.*.#       I.I.I.I.I.",
"I.I.I.I.I.I.. 2 ) =.>.2.0.r.r.r.r.2.v X               3 6.r.e.e.e.e.e.e.w._                   . [ 8.7.5.5.5.M       I.I.I.I.I.I.",
"I.I.I.I.I.I.I.  2 n =.9.0.0.6.>.M 2                   m e.e.e.e.w.q.q.q.3.p                   # *.3.1.1.1.;.4     I.I.I.I.I.I.I.",
"I.I.I.I.I.I.I.I.I.. # 3 a s 3 @ .                   < >.q.0.0.0.8.8.7.8. .X                   a :.<.:.:.:./ .     I.I.I.I.I.I.I.",
"I.I.I.I.I.I.I.I.I.I.I.I.I.I.I.I.                  . / 8.8.8.5.5.5.3.5.<.s                   . / :.-.:.-.@.4     I.I.I.I.I.I.I.I.",
"I.I.I.I.I.I.I.I.I.I.I.I.I.I.I.I.I.              . l <.3.3.1.1.1.1.<.<./ .                   < o.-.-.#.#.x .   I.I.I.I.I.I.I.I.I.",
"I.I.I.I.I.I.I.I.I.I.I.I.I.I.I.I.I.I.          . g -.1.<.<.<.<.<.:.:.@.3                     v @.@.@.} g @ I.I.I.I.I.I.I.I.I.I.I.",
"I.I.I.I.I.I.I.I.I.I.I.I.I.I.I.I.I.I.I.I.    . x *.<.:.:.:.:.-.-.-.#.g                     3 } o.[ g < . I.I.I.I.I.I.I.I.I.I.I.I.",
"I.I.I.I.I.I.I.I.I.I.I.I.I.I.I.I.I.I.I.I.I.I.. 3 x [ o.#.-.*.-.#.@.l .                   X l v p , . I.I.I.I.I.I.I.I.I.I.I.I.I.I.",
"I.I.I.I.I.I.I.I.I.I.I.I.I.I.I.I.I.I.I.I.I.I.I.I.I.+ < s x m [ [ d .                     X @ X I.I.I.I.I.I.I.I.I.I.I.I.I.I.I.I.I.",
"I.I.I.I.I.I.I.I.I.I.I.I.I.I.I.I.I.I.I.I.I.I.I.I.I.I.I.I.  + @ @                         I.I.I.I.I.I.I.I.I.I.I.I.I.I.I.I.I.I.I.I.",
"I.I.I.I.I.I.I.I.I.I.I.I.I.I.I.I.I.I.I.I.I.I.I.I.I.I.I.I.I.I.I.I.I.I.I.I.I.I.I.I.I.I.I.I.I.I.I.I.I.I.I.I.I.I.I.I.I.I.I.I.I.I.I.I.",
"I.I.I.I.I.I.I.I.I.I.I.I.I.I.I.I.I.I.I.I.I.I.I.I.I.I.I.I.I.I.I.I.I.I.I.I.I.I.I.I.I.I.I.I.I.I.I.I.I.I.I.I.I.I.I.I.I.I.I.I.I.I.I.I.",
"I.I.I.I.I.I.I.I.I.I.I.I.I.I.I.I.I.I.I.I.I.I.I.I.I.I.I.I.I.I.I.I.I.I.I.I.I.I.I.I.I.I.I.I.I.I.I.I.I.I.I.I.I.I.I.I.I.I.I.I.I.I.I.I.",
"I.I.I.I.I.I.I.I.I.I.I.I.I.I.I.I.I.I.I.I.I.I.I.I.I.I.I.I.I.I.I.I.I.I.I.I.I.I.I.I.I.I.I.I.I.I.I.I.I.I.I.I.I.I.I.I.I.I.I.I.I.I.I.I.",
"I.I.I.I.I.I.I.I.I.I.I.I.I.I.I.I.I.I.I.I.I.I.I.I.I.I.I.I.I.I.I.I.I.I.I.I.I.I.I.I.I.I.I.I.I.I.I.I.I.I.I.I.I.I.I.I.I.I.I.I.I.I.I.I.",
"I.I.I.I.I.I.I.I.I.I.I.I.I.I.I.I.I.I.I.I.I.I.I.I.I.I.I.I.I.I.I.I.I.I.I.I.I.I.I.I.I.I.I.I.I.I.I.I.I.I.I.I.I.I.I.I.I.I.I.I.I.I.I.I.",
"I.I.I.I.I.I.I.I.I.I.I.I.I.I.I.I.I.I.I.I.I.I.I.I.I.I.I.I.I.I.I.I.I.I.I.I.I.I.I.I.I.I.I.I.I.I.I.I.I.I.I.I.I.I.I.I.I.I.I.I.I.I.I.I.",
"I.I.I.I.I.I.I.I.I.I.I.I.I.I.I.I.I.I.I.I.I.I.I.I.I.I.I.I.I.I.I.I.I.I.I.I.I.I.I.I.I.I.I.I.I.I.I.I.I.I.I.I.I.I.I.I.I.I.I.I.I.I.I.I."
};
